<svg width="161" height="48" viewBox="0 0 161 48" fill="none" xmlns="http://www.w3.org/2000/svg">
<path d="M0.5 8C0.5 3.85787 3.85786 0.5 8 0.5H153C157.142 0.5 160.5 3.85786 160.5 8V40C160.5 44.1421 157.142 47.5 153 47.5H8C3.85786 47.5 0.5 44.1421 0.5 40V8Z" fill="url(#paint0_linear_1_836)"/>
<path d="M14.2569 29C14.3315 29 14.4062 28.9253 14.4809 28.776C14.5555 28.6267 14.5929 28.3813 14.5929 28.04V20.36C14.5929 20.0187 14.5555 19.7787 14.4809 19.64C14.4062 19.4907 14.3315 19.4107 14.2569 19.4H16.7209C16.6462 19.4 16.5715 19.4747 16.4969 19.624C16.4222 19.7733 16.3849 20.024 16.3849 20.376V27.208C16.3849 27.4427 16.4115 27.5867 16.4649 27.64C16.5289 27.6827 16.7209 27.704 17.0409 27.704H21.0889C21.7075 27.704 22.2035 27.6347 22.5769 27.496C22.9609 27.3467 23.2115 27.2027 23.3289 27.064L23.0089 28.664V29H14.2569ZM28.1724 29.16C27.1057 29.16 26.2684 28.9893 25.6604 28.648C25.063 28.3067 24.6417 27.8427 24.3964 27.256C24.1617 26.6693 24.0444 26.008 24.0444 25.272C24.0444 24.5253 24.167 23.8587 24.4124 23.272C24.6684 22.6853 25.095 22.2213 25.6924 21.88C26.2897 21.528 27.1164 21.352 28.1724 21.352C29.2284 21.352 30.055 21.528 30.6524 21.88C31.2497 22.2213 31.671 22.6853 31.9164 23.272C32.1724 23.8587 32.3004 24.5253 32.3004 25.272C32.3004 26.008 32.1777 26.6693 31.9324 27.256C31.6977 27.8427 31.2817 28.3067 30.6844 28.648C30.087 28.9893 29.2497 29.16 28.1724 29.16ZM28.1724 28.024C28.8337 28.024 29.3457 27.9173 29.7084 27.704C30.071 27.4907 30.3217 27.1813 30.4604 26.776C30.599 26.36 30.6684 25.8587 30.6684 25.272C30.6684 24.6853 30.5937 24.184 30.4444 23.768C30.3057 23.352 30.055 23.032 29.6924 22.808C29.3404 22.584 28.8337 22.472 28.1724 22.472C27.5217 22.472 27.015 22.5893 26.6524 22.824C26.2897 23.048 26.0337 23.3733 25.8844 23.8C25.7457 24.216 25.6764 24.712 25.6764 25.288C25.6764 25.8533 25.7457 26.344 25.8844 26.76C26.023 27.1653 26.2737 27.48 26.6364 27.704C26.999 27.9173 27.511 28.024 28.1724 28.024ZM37.7554 29.16C36.646 29.16 35.7714 28.9893 35.1314 28.648C34.502 28.3067 34.0594 27.8427 33.8034 27.256C33.5474 26.6693 33.4194 26.008 33.4194 25.272C33.4194 23.9707 33.7714 22.9947 34.4754 22.344C35.19 21.6933 36.23 21.368 37.5954 21.368C38.4274 21.368 39.126 21.4213 39.6914 21.528C40.2567 21.6347 40.646 21.736 40.8594 21.832V22.152L41.1794 23.544C40.966 23.32 40.5607 23.0907 39.9634 22.856C39.366 22.6107 38.614 22.488 37.7074 22.488C37.2487 22.488 36.8114 22.568 36.3954 22.728C35.99 22.8773 35.6594 23.1547 35.4034 23.56C35.158 23.9653 35.0354 24.5413 35.0354 25.288C35.0354 26.0133 35.1687 26.5787 35.4354 26.984C35.702 27.3787 36.07 27.6507 36.5394 27.8C37.0087 27.9493 37.542 28.024 38.1394 28.024C38.8967 28.024 39.5207 27.9067 40.0114 27.672C40.5127 27.4373 40.8487 27.208 41.0194 26.984V27.304L41.1794 28.392C40.9767 28.5627 40.5767 28.7333 39.9794 28.904C39.3927 29.0747 38.6514 29.16 37.7554 29.16ZM45.6045 29.16C44.4418 29.16 43.6258 28.952 43.1565 28.536C42.6872 28.1093 42.4525 27.5387 42.4525 26.824C42.4525 26.3227 42.5752 25.896 42.8205 25.544C43.0765 25.1813 43.4552 24.904 43.9565 24.712C44.4685 24.52 45.1138 24.424 45.8925 24.424C46.4472 24.424 46.9272 24.4667 47.3325 24.552C47.7485 24.6267 48.0845 24.7173 48.3405 24.824C48.6072 24.9307 48.7938 25.0213 48.9005 25.096C48.9005 24.4667 48.8205 23.96 48.6605 23.576C48.5112 23.192 48.2658 22.9147 47.9245 22.744C47.5832 22.5627 47.1192 22.472 46.5325 22.472C45.9032 22.472 45.3378 22.5467 44.8365 22.696C44.3458 22.8347 43.9512 22.9893 43.6525 23.16C43.3538 23.32 43.1672 23.4373 43.0925 23.512V23.192L42.9325 21.992C43.0285 21.9493 43.2365 21.88 43.5565 21.784C43.8765 21.6773 44.2978 21.5813 44.8205 21.496C45.3432 21.4 45.9565 21.352 46.6605 21.352C47.5565 21.352 48.2872 21.48 48.8525 21.736C49.4285 21.9813 49.8498 22.3653 50.1165 22.888C50.3938 23.4 50.5325 24.0507 50.5325 24.84V28.04C50.5325 28.3387 50.5645 28.5573 50.6285 28.696C50.7032 28.824 50.7778 28.9253 50.8525 29H48.9005V28.52L48.9325 28.216L48.9005 28.2C48.7298 28.36 48.5272 28.4987 48.2925 28.616C48.0578 28.7333 47.8018 28.8347 47.5245 28.92C47.2472 28.9947 46.9432 29.0533 46.6125 29.096C46.2925 29.1387 45.9565 29.16 45.6045 29.16ZM46.1325 28.024C46.7085 28.024 47.2045 27.9653 47.6205 27.848C48.0365 27.7307 48.3512 27.576 48.5645 27.384C48.7885 27.1813 48.9005 26.952 48.9005 26.696C48.9005 26.376 48.6872 26.104 48.2605 25.88C47.8445 25.656 47.1938 25.544 46.3085 25.544C45.4872 25.544 44.9058 25.6507 44.5645 25.864C44.2338 26.0773 44.0685 26.3973 44.0685 26.824C44.0685 27.24 44.2285 27.544 44.5485 27.736C44.8792 27.928 45.4072 28.024 46.1325 28.024ZM55.356 29.16C54.62 29.16 54.0867 29.0053 53.756 28.696C53.4253 28.376 53.26 27.8587 53.26 27.144V22.632H51.82V21.512C52.3107 21.512 52.6947 21.4533 52.972 21.336C53.2493 21.208 53.4467 20.9893 53.564 20.68C53.6813 20.3707 53.74 19.9387 53.74 19.384H54.892V21.512H57.948C57.8733 21.6187 57.7987 21.7787 57.724 21.992C57.66 22.1947 57.628 22.408 57.628 22.632H54.892V26.904C54.892 27.3947 54.9827 27.704 55.164 27.832C55.3453 27.96 55.5747 28.024 55.852 28.024C56.1187 28.024 56.364 27.9707 56.588 27.864C56.8227 27.7467 57.0253 27.608 57.196 27.448C57.3773 27.288 57.516 27.1333 57.612 26.984V27.48L57.772 28.392C57.6653 28.4987 57.5 28.616 57.276 28.744C57.052 28.8613 56.78 28.9573 56.46 29.032C56.14 29.1173 55.772 29.16 55.356 29.16ZM58.8454 29C58.92 29 58.9894 28.9253 59.0534 28.776C59.128 28.6267 59.1654 28.3813 59.1654 28.04V22.472C59.1654 22.1307 59.128 21.8907 59.0534 21.752C58.9894 21.6027 58.92 21.5227 58.8454 21.512H60.7974V28.04C60.7974 28.3813 60.8294 28.6267 60.8934 28.776C60.968 28.9253 61.0427 29 61.1174 29H58.8454ZM59.8214 19.976C59.512 19.976 59.272 19.8907 59.1014 19.72C58.9307 19.5387 58.8454 19.3307 58.8454 19.096C58.8454 18.8507 58.9254 18.6427 59.0854 18.472C59.256 18.3013 59.5014 18.216 59.8214 18.216C60.1414 18.216 60.3814 18.3013 60.5414 18.472C60.712 18.6427 60.7974 18.8507 60.7974 19.096C60.7974 19.3307 60.712 19.5387 60.5414 19.72C60.3707 19.8907 60.1307 19.976 59.8214 19.976ZM66.438 29.16C65.3713 29.16 64.534 28.9893 63.926 28.648C63.3287 28.3067 62.9073 27.8427 62.662 27.256C62.4273 26.6693 62.31 26.008 62.31 25.272C62.31 24.5253 62.4327 23.8587 62.678 23.272C62.934 22.6853 63.3607 22.2213 63.958 21.88C64.5553 21.528 65.382 21.352 66.438 21.352C67.494 21.352 68.3207 21.528 68.918 21.88C69.5153 22.2213 69.9367 22.6853 70.182 23.272C70.438 23.8587 70.566 24.5253 70.566 25.272C70.566 26.008 70.4433 26.6693 70.198 27.256C69.9633 27.8427 69.5473 28.3067 68.95 28.648C68.3527 28.9893 67.5153 29.16 66.438 29.16ZM66.438 28.024C67.0993 28.024 67.6113 27.9173 67.974 27.704C68.3367 27.4907 68.5873 27.1813 68.726 26.776C68.8647 26.36 68.934 25.8587 68.934 25.272C68.934 24.6853 68.8593 24.184 68.71 23.768C68.5713 23.352 68.3207 23.032 67.958 22.808C67.606 22.584 67.0993 22.472 66.438 22.472C65.7873 22.472 65.2807 22.5893 64.918 22.824C64.5553 23.048 64.2993 23.3733 64.15 23.8C64.0113 24.216 63.942 24.712 63.942 25.288C63.942 25.8533 64.0113 26.344 64.15 26.76C64.2887 27.1653 64.5393 27.48 64.902 27.704C65.2647 27.9173 65.7767 28.024 66.438 28.024ZM71.861 29C71.9357 29 72.005 28.9253 72.069 28.776C72.1437 28.6267 72.181 28.3813 72.181 28.04V22.632C72.181 22.2907 72.1437 22.0507 72.069 21.912C72.005 21.7627 71.9357 21.6827 71.861 21.672C72.3303 21.672 72.7357 21.64 73.077 21.576C73.429 21.5013 73.6743 21.4267 73.813 21.352V22.328L73.781 22.536L73.813 22.568C73.973 22.3653 74.1757 22.1733 74.421 21.992C74.677 21.8107 74.9917 21.6613 75.365 21.544C75.7383 21.416 76.1757 21.352 76.677 21.352C77.669 21.352 78.4263 21.6347 78.949 22.2C79.4823 22.7653 79.749 23.6507 79.749 24.856V28.04C79.749 28.3813 79.781 28.6267 79.845 28.776C79.9197 28.9253 79.9943 29 80.069 29H77.797C77.8717 29 77.941 28.9253 78.005 28.776C78.0797 28.6267 78.117 28.3813 78.117 28.04V24.904C78.117 24.2747 78.037 23.784 77.877 23.432C77.717 23.08 77.493 22.8347 77.205 22.696C76.9277 22.5467 76.6023 22.472 76.229 22.472C75.8343 22.472 75.4503 22.5573 75.077 22.728C74.7037 22.8987 74.3997 23.1707 74.165 23.544C73.9303 23.9173 73.813 24.4187 73.813 25.048V28.04C73.813 28.3813 73.845 28.6267 73.909 28.776C73.9837 28.9253 74.0583 29 74.133 29H71.861Z" fill="#333333"/>
<path d="M143 17H132" stroke="#333333" stroke-width="1.5" stroke-miterlimit="10" stroke-linecap="round" stroke-linejoin="round"/>
<path d="M128 17H123" stroke="#333333" stroke-width="1.5" stroke-miterlimit="10" stroke-linecap="round" stroke-linejoin="round"/>
<path d="M143 24H138" stroke="#333333" stroke-width="1.5" stroke-miterlimit="10" stroke-linecap="round" stroke-linejoin="round"/>
<path d="M134 24H123" stroke="#333333" stroke-width="1.5" stroke-miterlimit="10" stroke-linecap="round" stroke-linejoin="round"/>
<path d="M143 31H132" stroke="#333333" stroke-width="1.5" stroke-miterlimit="10" stroke-linecap="round" stroke-linejoin="round"/>
<path d="M128 31H123" stroke="#333333" stroke-width="1.5" stroke-miterlimit="10" stroke-linecap="round" stroke-linejoin="round"/>
<path d="M132 33V29" stroke="#333333" stroke-width="1.5" stroke-miterlimit="10" stroke-linecap="round" stroke-linejoin="round"/>
<path d="M132 19V15" stroke="#333333" stroke-width="1.5" stroke-miterlimit="10" stroke-linecap="round" stroke-linejoin="round"/>
<path d="M134 26V22" stroke="#333333" stroke-width="1.5" stroke-miterlimit="10" stroke-linecap="round" stroke-linejoin="round"/>
<path d="M0.5 8C0.5 3.85787 3.85786 0.5 8 0.5H153C157.142 0.5 160.5 3.85786 160.5 8V40C160.5 44.1421 157.142 47.5 153 47.5H8C3.85786 47.5 0.5 44.1421 0.5 40V8Z" stroke="#B4B4B4"/>
<defs>
<linearGradient id="paint0_linear_1_836" x1="12.6292" y1="7.25959" x2="45.7077" y2="83.2416" gradientUnits="userSpaceOnUse">
<stop stop-color="white"/>
<stop offset="1" stop-color="white"/>
</linearGradient>
</defs>
</svg>
