<svg width="174" height="31" viewBox="0 0 174 31" fill="none" xmlns="http://www.w3.org/2000/svg">
<path d="M0.372217 1.6V30H6.13222V12.04L12.7322 24.08H16.9722L23.5722 12.04V30H29.3322V1.6H23.9322L14.9322 18L5.97222 1.6H0.372217ZM35.3128 1.6V30H45.8328C50.9928 30 56.1928 27.68 56.1928 21.92C56.1928 18.72 54.6328 16.12 51.6328 14.96C53.9128 13.72 54.9928 11.52 54.9928 8.96C54.9928 3.52 50.2728 1.6 45.6328 1.6H35.3128ZM41.0728 25.08V17.64H45.5528C48.0328 17.64 50.2328 18.56 50.2328 21.36C50.2328 24.16 48.0328 25.08 45.5528 25.08H41.0728ZM41.0728 13.04V6.52H44.9928C47.1928 6.52 49.0728 7.32 49.0728 9.8C49.0728 12.24 47.1528 13.04 44.9928 13.04H41.0728ZM58.7857 6.88H66.7857V30H72.7457V6.88H80.7457V1.6H58.7857V6.88ZM80.7528 19.44C80.7528 25.8 85.4328 30.6 91.7128 30.6C98.1928 30.6 102.833 25.72 102.833 19.4C102.833 13 98.1528 8.28 91.8728 8.28C85.4728 8.28 80.7528 13.16 80.7528 19.44ZM91.7928 13.32C95.1928 13.32 97.1128 16.32 97.1128 19.44C97.1128 22.6 95.1128 25.56 91.7928 25.56C88.4328 25.56 86.4728 22.52 86.4728 19.44C86.4728 16.28 88.4728 13.32 91.7928 13.32ZM107.314 0.159998V30H112.794V19.48L121.074 30H128.154L118.394 18.24L127.194 8.88H120.634L112.794 17.48V0.159998H107.314ZM129.423 19.4C129.423 25.8 133.863 30.6 140.223 30.6C144.183 30.6 148.303 28.64 149.823 24.84L144.823 23.24C143.783 24.92 142.263 25.88 140.263 25.88C137.223 25.88 135.543 23.64 135.103 20.84H150.263V19.44C150.263 13.04 146.383 8.28 139.943 8.28C133.623 8.28 129.423 13.4 129.423 19.4ZM139.943 12.6C142.623 12.6 144.143 14.6 144.503 17.08H135.183C135.663 14.6 137.263 12.6 139.943 12.6ZM154.539 8.88V30H160.139V17.88C160.139 15.28 161.859 13.32 164.459 13.32C167.219 13.32 168.219 15.6 168.219 18.04V30H173.819V17.32C173.819 12.4 171.299 8.28 166.099 8.28C163.539 8.28 161.179 9.36 159.859 11.6L159.699 8.88H154.539Z" fill="#F7F7F7"/>
</svg>
