<svg width="95" height="14" viewBox="0 0 95 14" fill="none" xmlns="http://www.w3.org/2000/svg">
<path d="M0.62 13.5001V0.360061H4.112L7.406 8.20806H7.73L11.006 0.360061H14.552V13.5001H12.014V2.28606L12.338 2.32206L8.792 10.8181H6.182L2.618 2.32206L2.96 2.28606V13.5001H0.62ZM21.9698 13.8421C21.1298 13.8421 20.3918 13.6981 19.7558 13.4101C19.1318 13.1221 18.6098 12.7381 18.1898 12.2581C17.7818 11.7661 17.4698 11.2201 17.2538 10.6201C17.0498 10.0201 16.9478 9.40806 16.9478 8.78406V8.44206C16.9478 7.79406 17.0498 7.17006 17.2538 6.57006C17.4698 5.95806 17.7818 5.41806 18.1898 4.95006C18.6098 4.47006 19.1258 4.09206 19.7378 3.81606C20.3498 3.52806 21.0578 3.38406 21.8618 3.38406C22.9178 3.38406 23.7998 3.61806 24.5078 4.08606C25.2278 4.54206 25.7678 5.14806 26.1278 5.90406C26.4878 6.64806 26.6678 7.45206 26.6678 8.31606V9.21606H18.0098V7.68606H25.1018L24.3278 8.44206C24.3278 7.81806 24.2378 7.28406 24.0578 6.84006C23.8778 6.39606 23.6018 6.05406 23.2298 5.81406C22.8698 5.57406 22.4138 5.45406 21.8618 5.45406C21.3098 5.45406 20.8418 5.58006 20.4578 5.83206C20.0738 6.08406 19.7798 6.45006 19.5758 6.93006C19.3838 7.39806 19.2878 7.96206 19.2878 8.62206C19.2878 9.23406 19.3838 9.78006 19.5758 10.2601C19.7678 10.7281 20.0618 11.1001 20.4578 11.3761C20.8538 11.6401 21.3578 11.7721 21.9698 11.7721C22.5818 11.7721 23.0798 11.6521 23.4638 11.4121C23.8478 11.1601 24.0938 10.8541 24.2018 10.4941H26.5058C26.3618 11.1661 26.0858 11.7541 25.6778 12.2581C25.2698 12.7621 24.7478 13.1521 24.1118 13.4281C23.4878 13.7041 22.7738 13.8421 21.9698 13.8421ZM33.0059 13.6261C32.1059 13.6261 31.3619 13.5121 30.7739 13.2841C30.1979 13.0441 29.7659 12.6481 29.4779 12.0961C29.1899 11.5321 29.0459 10.7761 29.0459 9.82806L29.0639 0.97206H31.4039L31.3859 9.99006C31.3859 10.4701 31.5119 10.8421 31.7639 11.1061C32.0279 11.3581 32.3999 11.4841 32.8799 11.4841H34.4099V13.6261H33.0059ZM27.4979 5.56206V3.72606H34.4099V5.56206H27.4979ZM42.3967 13.5001V10.6021H41.9827V7.38006C41.9827 6.81606 41.8447 6.39606 41.5687 6.12006C41.2927 5.84406 40.8667 5.70606 40.2907 5.70606C39.9907 5.70606 39.6307 5.71206 39.2107 5.72406C38.7907 5.73606 38.3647 5.75406 37.9327 5.77806C37.5127 5.79006 37.1347 5.80806 36.7987 5.83206V3.70806C37.0747 3.68406 37.3867 3.66006 37.7347 3.63606C38.0827 3.61206 38.4367 3.60006 38.7967 3.60006C39.1687 3.58806 39.5167 3.58206 39.8407 3.58206C40.8487 3.58206 41.6827 3.71406 42.3427 3.97806C43.0147 4.24206 43.5187 4.65606 43.8547 5.22006C44.2027 5.78406 44.3767 6.52206 44.3767 7.43406V13.5001H42.3967ZM39.2467 13.7521C38.5387 13.7521 37.9147 13.6261 37.3747 13.3741C36.8467 13.1221 36.4327 12.7621 36.1327 12.2941C35.8447 11.8261 35.7007 11.2621 35.7007 10.6021C35.7007 9.88206 35.8747 9.29406 36.2227 8.83806C36.5827 8.38206 37.0807 8.04006 37.7167 7.81206C38.3647 7.58406 39.1207 7.47006 39.9847 7.47006H42.2527V8.96406H39.9487C39.3727 8.96406 38.9287 9.10806 38.6167 9.39606C38.3167 9.67206 38.1667 10.0321 38.1667 10.4761C38.1667 10.9201 38.3167 11.2801 38.6167 11.5561C38.9287 11.8321 39.3727 11.9701 39.9487 11.9701C40.2967 11.9701 40.6147 11.9101 40.9027 11.7901C41.2027 11.6581 41.4487 11.4421 41.6407 11.1421C41.8447 10.8301 41.9587 10.4101 41.9827 9.88206L42.5947 10.5841C42.5347 11.2681 42.3667 11.8441 42.0907 12.3121C41.8267 12.7801 41.4547 13.1401 40.9747 13.3921C40.5067 13.6321 39.9307 13.7521 39.2467 13.7521ZM47.0568 13.5001V3.72606H49.0368V7.92006H48.8568C48.8568 6.93606 48.9828 6.11406 49.2348 5.45406C49.4868 4.78206 49.8588 4.27806 50.3508 3.94206C50.8548 3.59406 51.4788 3.42006 52.2228 3.42006H52.3308C53.0868 3.42006 53.7108 3.59406 54.2028 3.94206C54.7068 4.27806 55.0788 4.78206 55.3188 5.45406C55.5708 6.11406 55.6968 6.93606 55.6968 7.92006H55.0668C55.0668 6.93606 55.1928 6.11406 55.4448 5.45406C55.7088 4.78206 56.0868 4.27806 56.5788 3.94206C57.0828 3.59406 57.7068 3.42006 58.4508 3.42006H58.5588C59.3148 3.42006 59.9448 3.59406 60.4488 3.94206C60.9528 4.27806 61.3308 4.78206 61.5828 5.45406C61.8468 6.11406 61.9788 6.93606 61.9788 7.92006V13.5001H59.4768V7.68606C59.4768 7.07406 59.3208 6.58806 59.0088 6.22806C58.6968 5.85606 58.2528 5.67006 57.6768 5.67006C57.1008 5.67006 56.6388 5.86206 56.2908 6.24606C55.9428 6.61806 55.7688 7.12206 55.7688 7.75806V13.5001H53.2668V7.68606C53.2668 7.07406 53.1108 6.58806 52.7988 6.22806C52.4868 5.85606 52.0428 5.67006 51.4668 5.67006C50.8908 5.67006 50.4288 5.86206 50.0808 6.24606C49.7328 6.61806 49.5588 7.12206 49.5588 7.75806V13.5001H47.0568ZM70.5745 13.5001V10.6021H70.1605V7.38006C70.1605 6.81606 70.0225 6.39606 69.7465 6.12006C69.4705 5.84406 69.0445 5.70606 68.4685 5.70606C68.1685 5.70606 67.8085 5.71206 67.3885 5.72406C66.9685 5.73606 66.5425 5.75406 66.1105 5.77806C65.6905 5.79006 65.3125 5.80806 64.9765 5.83206V3.70806C65.2525 3.68406 65.5645 3.66006 65.9125 3.63606C66.2605 3.61206 66.6145 3.60006 66.9745 3.60006C67.3465 3.58806 67.6945 3.58206 68.0185 3.58206C69.0265 3.58206 69.8605 3.71406 70.5205 3.97806C71.1925 4.24206 71.6965 4.65606 72.0325 5.22006C72.3805 5.78406 72.5545 6.52206 72.5545 7.43406V13.5001H70.5745ZM67.4245 13.7521C66.7165 13.7521 66.0925 13.6261 65.5525 13.3741C65.0245 13.1221 64.6105 12.7621 64.3105 12.2941C64.0225 11.8261 63.8785 11.2621 63.8785 10.6021C63.8785 9.88206 64.0525 9.29406 64.4005 8.83806C64.7605 8.38206 65.2585 8.04006 65.8945 7.81206C66.5425 7.58406 67.2985 7.47006 68.1625 7.47006H70.4305V8.96406H68.1265C67.5505 8.96406 67.1065 9.10806 66.7945 9.39606C66.4945 9.67206 66.3445 10.0321 66.3445 10.4761C66.3445 10.9201 66.4945 11.2801 66.7945 11.5561C67.1065 11.8321 67.5505 11.9701 68.1265 11.9701C68.4745 11.9701 68.7925 11.9101 69.0805 11.7901C69.3805 11.6581 69.6265 11.4421 69.8185 11.1421C70.0225 10.8301 70.1365 10.4101 70.1605 9.88206L70.7725 10.5841C70.7125 11.2681 70.5445 11.8441 70.2685 12.3121C70.0045 12.7801 69.6325 13.1401 69.1525 13.3921C68.6845 13.6321 68.1085 13.7521 67.4245 13.7521ZM78.7805 13.8061C77.4365 13.8061 76.3805 13.5241 75.6125 12.9601C74.8565 12.3841 74.4605 11.5921 74.4245 10.5841H76.6745C76.7105 10.9201 76.8965 11.2261 77.2325 11.5021C77.5685 11.7781 78.0965 11.9161 78.8165 11.9161C79.4165 11.9161 79.8905 11.8081 80.2385 11.5921C80.5985 11.3761 80.7785 11.0821 80.7785 10.7101C80.7785 10.3861 80.6405 10.1281 80.3645 9.93606C80.1005 9.74406 79.6445 9.61806 78.9965 9.55806L78.1325 9.46806C77.0405 9.34806 76.2005 9.03606 75.6125 8.53206C75.0245 8.02806 74.7305 7.35606 74.7305 6.51606C74.7305 5.84406 74.8985 5.28006 75.2345 4.82406C75.5705 4.36806 76.0325 4.02606 76.6205 3.79806C77.2205 3.55806 77.9045 3.43806 78.6725 3.43806C79.8725 3.43806 80.8445 3.70206 81.5885 4.23006C82.3325 4.75806 82.7225 5.53206 82.7585 6.55206H80.5085C80.4845 6.21606 80.3165 5.92806 80.0045 5.68806C79.6925 5.44806 79.2425 5.32806 78.6545 5.32806C78.1265 5.32806 77.7185 5.43006 77.4305 5.63406C77.1425 5.83806 76.9985 6.10206 76.9985 6.42606C76.9985 6.73806 77.1125 6.97806 77.3405 7.14606C77.5805 7.31406 77.9645 7.42806 78.4925 7.48806L79.3565 7.57806C80.5085 7.69806 81.4085 8.01606 82.0565 8.53206C82.7165 9.04806 83.0465 9.74406 83.0465 10.6201C83.0465 11.2681 82.8665 11.8321 82.5065 12.3121C82.1585 12.7801 81.6665 13.1461 81.0305 13.4101C80.3945 13.6741 79.6445 13.8061 78.7805 13.8061ZM91.9534 13.5001L88.6774 8.92806H87.2194L91.3774 3.72606H93.9874L90.1534 8.53206L90.2074 7.27206L94.7794 13.5001H91.9534ZM85.1134 13.5001V0.360061H87.6154V13.5001H85.1134Z" fill="black"/>
</svg>
