<svg width="141" height="33" viewBox="0 0 141 33" fill="none" xmlns="http://www.w3.org/2000/svg">
<path d="M11.8358 23.7235C9.72378 23.7235 7.78245 23.2328 6.01178 22.2515C4.26245 21.2702 2.86512 19.9048 1.81978 18.1555C0.795783 16.3848 0.283783 14.4008 0.283783 12.2035C0.283783 10.0062 0.795783 8.03284 1.81978 6.28351C2.86512 4.53418 4.26245 3.16884 6.01178 2.18751C7.78245 1.20618 9.72378 0.715511 11.8358 0.715511C13.9478 0.715511 15.8785 1.20618 17.6278 2.18751C19.3985 3.16884 20.7851 4.53418 21.7878 6.28351C22.8118 8.03284 23.3238 10.0062 23.3238 12.2035C23.3238 14.4008 22.8118 16.3848 21.7878 18.1555C20.7638 19.9048 19.3771 21.2702 17.6278 22.2515C15.8785 23.2328 13.9478 23.7235 11.8358 23.7235ZM11.8358 18.7315C13.6278 18.7315 15.0571 18.1342 16.1238 16.9395C17.2118 15.7448 17.7558 14.1662 17.7558 12.2035C17.7558 10.2195 17.2118 8.64084 16.1238 7.46751C15.0571 6.27284 13.6278 5.67551 11.8358 5.67551C10.0225 5.67551 8.57178 6.26218 7.48378 7.43551C6.41712 8.60884 5.88378 10.1982 5.88378 12.2035C5.88378 14.1875 6.41712 15.7768 7.48378 16.9715C8.57178 18.1448 10.0225 18.7315 11.8358 18.7315ZM30.88 8.17151C31.4134 7.33951 32.1494 6.66751 33.088 6.15551C34.0267 5.64351 35.1254 5.38751 36.384 5.38751C37.856 5.38751 39.1894 5.76084 40.384 6.50751C41.5787 7.25418 42.5174 8.32084 43.2 9.70751C43.904 11.0942 44.256 12.7048 44.256 14.5395C44.256 16.3742 43.904 17.9955 43.2 19.4035C42.5174 20.7902 41.5787 21.8675 40.384 22.6355C39.1894 23.3822 37.856 23.7555 36.384 23.7555C35.1467 23.7555 34.048 23.4995 33.088 22.9875C32.1494 22.4755 31.4134 21.8142 30.88 21.0035V32.0115H25.408V5.64351H30.88V8.17151ZM38.688 14.5395C38.688 13.1742 38.304 12.1075 37.536 11.3395C36.7894 10.5502 35.8614 10.1555 34.752 10.1555C33.664 10.1555 32.736 10.5502 31.968 11.3395C31.2214 12.1288 30.848 13.2062 30.848 14.5715C30.848 15.9368 31.2214 17.0142 31.968 17.8035C32.736 18.5928 33.664 18.9875 34.752 18.9875C35.84 18.9875 36.768 18.5928 37.536 17.8035C38.304 16.9928 38.688 15.9048 38.688 14.5395ZM62.9988 14.2835C62.9988 14.7955 62.9668 15.3288 62.9028 15.8835H50.5188C50.6041 16.9928 50.9561 17.8462 51.5748 18.4435C52.2148 19.0195 52.9935 19.3075 53.9108 19.3075C55.2761 19.3075 56.2255 18.7315 56.7588 17.5795H62.5828C62.2841 18.7528 61.7401 19.8088 60.9508 20.7475C60.1828 21.6862 59.2121 22.4222 58.0388 22.9555C56.8655 23.4888 55.5535 23.7555 54.1028 23.7555C52.3535 23.7555 50.7961 23.3822 49.4308 22.6355C48.0655 21.8888 46.9988 20.8222 46.2308 19.4355C45.4628 18.0488 45.0788 16.4275 45.0788 14.5715C45.0788 12.7155 45.4521 11.0942 46.1988 9.70751C46.9668 8.32084 48.0335 7.25418 49.3988 6.50751C50.7641 5.76084 52.3321 5.38751 54.1028 5.38751C55.8308 5.38751 57.3668 5.75018 58.7108 6.47551C60.0548 7.20084 61.1001 8.23551 61.8468 9.57951C62.6148 10.9235 62.9988 12.4915 62.9988 14.2835ZM57.3988 12.8435C57.3988 11.9048 57.0788 11.1582 56.4388 10.6035C55.7988 10.0488 54.9988 9.77151 54.0388 9.77151C53.1215 9.77151 52.3428 10.0382 51.7028 10.5715C51.0841 11.1048 50.7001 11.8622 50.5508 12.8435H57.3988ZM75.8055 5.45151C77.8962 5.45151 79.5602 6.13418 80.7975 7.49951C82.0562 8.84351 82.6855 10.6995 82.6855 13.0675V23.4995H77.2455V13.8035C77.2455 12.6088 76.9362 11.6808 76.3175 11.0195C75.6989 10.3582 74.8669 10.0275 73.8215 10.0275C72.7762 10.0275 71.9442 10.3582 71.3255 11.0195C70.7069 11.6808 70.3975 12.6088 70.3975 13.8035V23.4995H64.9255V5.64351H70.3975V8.01151C70.9522 7.22218 71.6989 6.60351 72.6375 6.15551C73.5762 5.68618 74.6322 5.45151 75.8055 5.45151ZM93.656 23.7235C92.0134 23.7235 90.5414 23.4568 89.24 22.9235C87.9387 22.3902 86.8934 21.6008 86.104 20.5555C85.336 19.5102 84.9307 18.2515 84.888 16.7795H90.712C90.7974 17.6115 91.0854 18.2515 91.576 18.6995C92.0667 19.1262 92.7067 19.3395 93.496 19.3395C94.3067 19.3395 94.9467 19.1582 95.416 18.7955C95.8854 18.4115 96.12 17.8888 96.12 17.2275C96.12 16.6728 95.928 16.2142 95.544 15.8515C95.1814 15.4888 94.7227 15.1902 94.168 14.9555C93.6347 14.7208 92.8667 14.4542 91.864 14.1555C90.4134 13.7075 89.2294 13.2595 88.312 12.8115C87.3947 12.3635 86.6054 11.7022 85.944 10.8275C85.2827 9.95284 84.952 8.81151 84.952 7.40351C84.952 5.31284 85.7094 3.68084 87.224 2.50751C88.7387 1.31284 90.712 0.715511 93.144 0.715511C95.6187 0.715511 97.6134 1.31284 99.128 2.50751C100.643 3.68084 101.453 5.32351 101.56 7.43551H95.64C95.5974 6.71018 95.3307 6.14484 94.84 5.73951C94.3494 5.31284 93.72 5.09951 92.952 5.09951C92.2907 5.09951 91.7574 5.28084 91.352 5.64351C90.9467 5.98484 90.744 6.48618 90.744 7.14751C90.744 7.87284 91.0854 8.43818 91.768 8.84351C92.4507 9.24884 93.5174 9.68618 94.968 10.1555C96.4187 10.6462 97.592 11.1155 98.488 11.5635C99.4054 12.0115 100.195 12.6622 100.856 13.5155C101.517 14.3688 101.848 15.4675 101.848 16.8115C101.848 18.0915 101.517 19.2542 100.856 20.2995C100.216 21.3448 99.2774 22.1768 98.04 22.7955C96.8027 23.4142 95.3414 23.7235 93.656 23.7235ZM121.088 14.2835C121.088 14.7955 121.056 15.3288 120.992 15.8835H108.608C108.693 16.9928 109.045 17.8462 109.664 18.4435C110.304 19.0195 111.082 19.3075 112 19.3075C113.365 19.3075 114.314 18.7315 114.848 17.5795H120.672C120.373 18.7528 119.829 19.8088 119.04 20.7475C118.272 21.6862 117.301 22.4222 116.128 22.9555C114.954 23.4888 113.642 23.7555 112.192 23.7555C110.442 23.7555 108.885 23.3822 107.52 22.6355C106.154 21.8888 105.088 20.8222 104.32 19.4355C103.552 18.0488 103.168 16.4275 103.168 14.5715C103.168 12.7155 103.541 11.0942 104.288 9.70751C105.056 8.32084 106.122 7.25418 107.488 6.50751C108.853 5.76084 110.421 5.38751 112.192 5.38751C113.92 5.38751 115.456 5.75018 116.8 6.47551C118.144 7.20084 119.189 8.23551 119.936 9.57951C120.704 10.9235 121.088 12.4915 121.088 14.2835ZM115.488 12.8435C115.488 11.9048 115.168 11.1582 114.528 10.6035C113.888 10.0488 113.088 9.77151 112.128 9.77151C111.21 9.77151 110.432 10.0382 109.792 10.5715C109.173 11.1048 108.789 11.8622 108.64 12.8435H115.488ZM121.926 14.5395C121.926 12.7048 122.268 11.0942 122.95 9.70751C123.654 8.32084 124.604 7.25418 125.798 6.50751C126.993 5.76084 128.326 5.38751 129.798 5.38751C131.057 5.38751 132.156 5.64351 133.094 6.15551C134.054 6.66751 134.79 7.33951 135.302 8.17151V5.64351H140.774V23.4995H135.302V20.9715C134.769 21.8035 134.022 22.4755 133.062 22.9875C132.124 23.4995 131.025 23.7555 129.766 23.7555C128.316 23.7555 126.993 23.3822 125.798 22.6355C124.604 21.8675 123.654 20.7902 122.95 19.4035C122.268 17.9955 121.926 16.3742 121.926 14.5395ZM135.302 14.5715C135.302 13.2062 134.918 12.1288 134.15 11.3395C133.404 10.5502 132.486 10.1555 131.398 10.1555C130.31 10.1555 129.382 10.5502 128.614 11.3395C127.868 12.1075 127.494 13.1742 127.494 14.5395C127.494 15.9048 127.868 16.9928 128.614 17.8035C129.382 18.5928 130.31 18.9875 131.398 18.9875C132.486 18.9875 133.404 18.5928 134.15 17.8035C134.918 17.0142 135.302 15.9368 135.302 14.5715Z" fill="white"/>
</svg>
