<svg width="18" height="18" viewBox="0 0 18 18" fill="none" xmlns="http://www.w3.org/2000/svg">
<path d="M18 3.98141C17.3229 4.27672 16.6068 4.47299 15.8737 4.56416C16.6463 4.10587 17.2238 3.38017 17.4971 2.52453C16.7738 2.95354 15.9824 3.25564 15.1571 3.41778C14.6511 2.87754 13.9944 2.50194 13.2722 2.3398C12.55 2.17766 11.7957 2.23647 11.1073 2.50859C10.419 2.7807 9.82836 3.25355 9.41223 3.86569C8.9961 4.47783 8.77368 5.20097 8.77387 5.94116C8.77387 6.23366 8.79862 6.51491 8.85938 6.78266C7.39134 6.71068 5.95503 6.32967 4.64434 5.66454C3.33365 4.99941 2.17811 4.06513 1.25325 2.92278C0.779422 3.73487 0.632935 4.69703 0.843619 5.61334C1.0543 6.52964 1.60631 7.3312 2.38725 7.85478C1.8031 7.83912 1.23128 7.68324 0.72 7.40028V7.44078C0.720979 8.29289 1.0155 9.11865 1.55398 9.77905C2.09247 10.4395 2.84203 10.8942 3.6765 11.0667C3.36081 11.1499 3.03546 11.1907 2.709 11.1882C2.47454 11.1923 2.24031 11.1712 2.01038 11.1252C2.24881 11.8576 2.70843 12.498 3.32594 12.9584C3.94346 13.4188 4.68851 13.6764 5.4585 13.6958C4.15231 14.7173 2.54135 15.2715 0.883125 15.2697C0.5805 15.2697 0.29025 15.2562 0 15.219C1.68737 16.3064 3.65364 16.8816 5.661 16.875C12.4515 16.875 16.164 11.25 16.164 6.37428C16.164 6.21116 16.1584 6.05366 16.1505 5.89728C16.8783 5.37639 17.5051 4.72715 18 3.98141Z" fill="#F7F7F7"/>
</svg>
