<svg width="189" height="36" viewBox="0 0 189 36" fill="none" xmlns="http://www.w3.org/2000/svg">
<path d="M0.897217 2.54227V35.3078H7.34629V14.5871L14.7358 28.4778H19.4831L26.8726 14.5871V35.3078H33.3217V2.54227H27.2757L17.199 21.4632L7.16715 2.54227H0.897217ZM37.8233 23.0784C37.8233 30.4622 42.7945 36 49.9153 36C54.3491 36 58.9619 33.7388 60.6638 29.3546L55.0656 27.5087C53.9012 29.4469 52.1994 30.5545 49.9601 30.5545C46.5564 30.5545 44.6755 27.9702 44.1828 24.7398H61.1564V23.1246C61.1564 15.7408 56.8123 10.2491 49.6018 10.2491C42.5258 10.2491 37.8233 16.1561 37.8233 23.0784ZM49.6018 15.2332C52.6024 15.2332 54.3043 17.5406 54.7074 20.4018H44.2724C44.8098 17.5406 46.6012 15.2332 49.6018 15.2332ZM63.0836 10.9413V16.1561H67.1143V27.5087C67.1143 32.7696 70.0253 36 75.0412 36C77.0118 36 79.0271 35.4924 80.729 34.3848L79.6093 29.5392C78.5345 30.0007 77.4596 30.3699 76.2952 30.3699C74.1008 30.3699 73.3842 28.7547 73.3842 26.7242V16.1561H79.8333V10.9413H73.3842V2.63457H67.1143V10.9413H63.0836ZM91.5481 36C94.2352 36 97.1015 34.8925 98.5346 32.4466L98.7137 35.3078H104.312V20.5402C104.312 14.1717 99.9677 10.2491 94.0561 10.2491C89.7119 10.2491 85.0095 12.6488 83.9794 17.3098L89.5775 18.4636C90.2493 16.5253 92.0407 15.5562 93.9665 15.5562C96.6984 15.5562 98.2211 17.4944 98.2211 20.2172V21.6478C96.3849 20.9556 94.8174 20.5864 92.8469 20.5864C88.1444 20.5864 83.1285 22.94 83.1285 28.3855C83.1285 33.2311 87.2487 36 91.5481 36ZM89.3088 28.0625C89.3088 25.6166 91.9512 24.9244 93.8769 24.9244C94.6383 24.9244 95.3548 25.0167 96.1162 25.1551C96.8775 25.3397 97.5493 25.5704 98.2211 25.8473V26.0781C98.2211 29.0777 95.8027 31.016 93.0708 31.016C91.3242 31.016 89.3088 30.1392 89.3088 28.0625ZM109.308 0.88092V35.3078H115.086L115.265 32.1236C116.922 34.7079 119.609 36 122.565 36C129.506 36 133.806 29.5854 133.806 22.9861C133.806 16.3869 129.641 10.2491 122.923 10.2491C119.967 10.2491 117.37 11.5874 115.578 14.0333V0.88092H109.308ZM121.445 16.0638C125.252 16.0638 127.401 19.525 127.401 23.1246C127.401 26.7703 125.162 30.1853 121.445 30.1853C117.683 30.1853 115.489 26.678 115.489 23.1246C115.489 19.4788 117.728 16.0638 121.445 16.0638ZM137.911 10.9413V35.3078H144.181V21.3248C144.181 18.3251 146.107 16.0638 149.018 16.0638C152.108 16.0638 153.228 18.6943 153.228 21.5094V35.3078H159.498V20.6787C159.498 15.0024 156.676 10.2491 150.854 10.2491C147.988 10.2491 145.346 11.4951 143.868 14.0794L143.689 10.9413H137.911ZM164.503 0.88092V35.3078H170.28L170.459 32.1236C172.116 34.7079 174.803 36 177.759 36C184.701 36 189 29.5854 189 22.9861C189 16.3869 184.835 10.2491 178.117 10.2491C175.161 10.2491 172.564 11.5874 170.772 14.0333V0.88092H164.503ZM176.639 16.0638C180.446 16.0638 182.596 19.525 182.596 23.1246C182.596 26.7703 180.356 30.1853 176.639 30.1853C172.877 30.1853 170.683 26.678 170.683 23.1246C170.683 19.4788 172.922 16.0638 176.639 16.0638Z" fill="#F7F7F7"/>
</svg>
