<svg width="139" height="15" viewBox="0 0 139 15" fill="none" xmlns="http://www.w3.org/2000/svg">
<path d="M3.78 14.5001L0.432 1.36006H3.078L5.796 12.7901L5.094 12.3761H6.894L6.102 12.7901L8.244 1.86406H10.44L7.776 14.5001H3.78ZM11.628 14.5001L8.73 1.86406H11.016L13.482 12.7901L12.708 12.3761H14.472L13.788 12.7901L16.182 1.36006H18.684L15.696 14.5001H11.628ZM26.2229 14.5001V11.6021H25.8089V8.38006C25.8089 7.81606 25.6709 7.39606 25.3949 7.12006C25.1189 6.84406 24.6929 6.70606 24.1169 6.70606C23.8169 6.70606 23.4569 6.71206 23.0369 6.72406C22.6169 6.73606 22.1909 6.75406 21.7589 6.77806C21.3389 6.79006 20.9609 6.80806 20.6249 6.83206V4.70806C20.9009 4.68406 21.2129 4.66006 21.5609 4.63606C21.9089 4.61206 22.2629 4.60006 22.6229 4.60006C22.9949 4.58806 23.3429 4.58206 23.6669 4.58206C24.6749 4.58206 25.5089 4.71406 26.1689 4.97806C26.8409 5.24206 27.3449 5.65606 27.6809 6.22006C28.0289 6.78406 28.2029 7.52206 28.2029 8.43406V14.5001H26.2229ZM23.0729 14.7521C22.3649 14.7521 21.7409 14.6261 21.2009 14.3741C20.6729 14.1221 20.2589 13.7621 19.9589 13.2941C19.6709 12.8261 19.5269 12.2621 19.5269 11.6021C19.5269 10.8821 19.7009 10.2941 20.0489 9.83806C20.4089 9.38206 20.9069 9.04006 21.5429 8.81206C22.1909 8.58406 22.9469 8.47006 23.8109 8.47006H26.0789V9.96406H23.7749C23.1989 9.96406 22.7549 10.1081 22.4429 10.3961C22.1429 10.6721 21.9929 11.0321 21.9929 11.4761C21.9929 11.9201 22.1429 12.2801 22.4429 12.5561C22.7549 12.8321 23.1989 12.9701 23.7749 12.9701C24.1229 12.9701 24.4409 12.9101 24.7289 12.7901C25.0289 12.6581 25.2749 12.4421 25.4669 12.1421C25.6709 11.8301 25.7849 11.4101 25.8089 10.8821L26.4209 11.5841C26.3609 12.2681 26.1929 12.8441 25.9169 13.3121C25.6529 13.7801 25.2809 14.1401 24.8009 14.3921C24.3329 14.6321 23.7569 14.7521 23.0729 14.7521ZM31.0089 14.5001V1.36006H33.5109V14.5001H31.0089ZM29.7849 3.23206V1.36006H33.5109V3.23206H29.7849ZM36.4933 14.5001V1.36006H38.9953V14.5001H36.4933ZM35.2693 3.23206V1.36006H38.9953V3.23206H35.2693ZM46.2257 14.8421C45.3857 14.8421 44.6477 14.6981 44.0117 14.4101C43.3877 14.1221 42.8657 13.7381 42.4457 13.2581C42.0377 12.7661 41.7257 12.2201 41.5097 11.6201C41.3057 11.0201 41.2037 10.4081 41.2037 9.78406V9.44206C41.2037 8.79406 41.3057 8.17006 41.5097 7.57006C41.7257 6.95806 42.0377 6.41806 42.4457 5.95006C42.8657 5.47006 43.3817 5.09206 43.9937 4.81606C44.6057 4.52806 45.3137 4.38406 46.1177 4.38406C47.1737 4.38406 48.0557 4.61806 48.7637 5.08606C49.4837 5.54206 50.0237 6.14806 50.3837 6.90406C50.7437 7.64806 50.9237 8.45206 50.9237 9.31606V10.2161H42.2657V8.68606H49.3577L48.5837 9.44206C48.5837 8.81806 48.4937 8.28406 48.3137 7.84006C48.1337 7.39606 47.8577 7.05406 47.4857 6.81406C47.1257 6.57406 46.6697 6.45406 46.1177 6.45406C45.5657 6.45406 45.0977 6.58006 44.7137 6.83206C44.3297 7.08406 44.0357 7.45006 43.8317 7.93006C43.6397 8.39806 43.5437 8.96206 43.5437 9.62206C43.5437 10.2341 43.6397 10.7801 43.8317 11.2601C44.0237 11.7281 44.3177 12.1001 44.7137 12.3761C45.1097 12.6401 45.6137 12.7721 46.2257 12.7721C46.8377 12.7721 47.3357 12.6521 47.7197 12.4121C48.1037 12.1601 48.3497 11.8541 48.4577 11.4941H50.7617C50.6177 12.1661 50.3417 12.7541 49.9337 13.2581C49.5257 13.7621 49.0037 14.1521 48.3677 14.4281C47.7437 14.7041 47.0297 14.8421 46.2257 14.8421ZM57.2618 14.6261C56.3618 14.6261 55.6178 14.5121 55.0298 14.2841C54.4538 14.0441 54.0218 13.6481 53.7338 13.0961C53.4458 12.5321 53.3018 11.7761 53.3018 10.8281L53.3198 1.97206H55.6598L55.6418 10.9901C55.6418 11.4701 55.7678 11.8421 56.0198 12.1061C56.2838 12.3581 56.6558 12.4841 57.1358 12.4841H58.6658V14.6261H57.2618ZM51.7538 6.56206V4.72606H58.6658V6.56206H51.7538ZM66.8858 14.8421C65.6978 14.8421 64.6778 14.6321 63.8258 14.2121C62.9738 13.7921 62.2778 13.2461 61.7378 12.5741C61.2098 11.9021 60.8198 11.1701 60.5678 10.3781C60.3158 9.58606 60.1898 8.82406 60.1898 8.09206V7.69606C60.1898 6.88006 60.3158 6.07606 60.5678 5.28406C60.8318 4.49206 61.2338 3.77206 61.7738 3.12406C62.3138 2.47606 62.9978 1.96006 63.8258 1.57606C64.6658 1.18006 65.6558 0.98206 66.7958 0.98206C67.9838 0.98206 69.0158 1.19806 69.8918 1.63006C70.7798 2.05006 71.4878 2.65006 72.0158 3.43006C72.5438 4.19806 72.8618 5.09806 72.9698 6.13006H70.3958C70.2998 5.53006 70.0838 5.02606 69.7478 4.61806C69.4238 4.19806 69.0098 3.88606 68.5058 3.68206C68.0018 3.46606 67.4318 3.35806 66.7958 3.35806C66.1478 3.35806 65.5718 3.47206 65.0678 3.70006C64.5638 3.91606 64.1438 4.22806 63.8078 4.63606C63.4718 5.04406 63.2138 5.52406 63.0338 6.07606C62.8658 6.62806 62.7818 7.24006 62.7818 7.91206C62.7818 8.56006 62.8658 9.16006 63.0338 9.71206C63.2138 10.2641 63.4778 10.7501 63.8258 11.1701C64.1738 11.5781 64.5998 11.8961 65.1038 12.1241C65.6198 12.3521 66.2138 12.4661 66.8858 12.4661C67.8698 12.4661 68.6978 12.2261 69.3698 11.7461C70.0538 11.2541 70.4678 10.5701 70.6118 9.69406H73.1858C73.0658 10.6301 72.7478 11.4881 72.2318 12.2681C71.7158 13.0481 71.0078 13.6721 70.1078 14.1401C69.2078 14.6081 68.1338 14.8421 66.8858 14.8421ZM79.8427 14.8421C78.9787 14.8421 78.2167 14.7041 77.5567 14.4281C76.8967 14.1521 76.3387 13.7801 75.8827 13.3121C75.4267 12.8321 75.0787 12.2921 74.8387 11.6921C74.6107 11.0921 74.4967 10.4681 74.4967 9.82006V9.44206C74.4967 8.77006 74.6167 8.13406 74.8567 7.53406C75.1087 6.92206 75.4627 6.38206 75.9187 5.91406C76.3867 5.43406 76.9507 5.06206 77.6107 4.79806C78.2707 4.52206 79.0147 4.38406 79.8427 4.38406C80.6707 4.38406 81.4147 4.52206 82.0747 4.79806C82.7347 5.06206 83.2927 5.43406 83.7487 5.91406C84.2167 6.38206 84.5707 6.92206 84.8107 7.53406C85.0507 8.13406 85.1707 8.77006 85.1707 9.44206V9.82006C85.1707 10.4681 85.0507 11.0921 84.8107 11.6921C84.5827 12.2921 84.2407 12.8321 83.7847 13.3121C83.3287 13.7801 82.7707 14.1521 82.1107 14.4281C81.4507 14.7041 80.6947 14.8421 79.8427 14.8421ZM79.8427 12.7001C80.4547 12.7001 80.9707 12.5681 81.3907 12.3041C81.8107 12.0281 82.1287 11.6621 82.3447 11.2061C82.5607 10.7381 82.6687 10.2101 82.6687 9.62206C82.6687 9.02206 82.5547 8.49406 82.3267 8.03806C82.1107 7.57006 81.7867 7.20406 81.3547 6.94006C80.9347 6.66406 80.4307 6.52606 79.8427 6.52606C79.2547 6.52606 78.7447 6.66406 78.3127 6.94006C77.8927 7.20406 77.5687 7.57006 77.3407 8.03806C77.1127 8.49406 76.9987 9.02206 76.9987 9.62206C76.9987 10.2101 77.1067 10.7381 77.3227 11.2061C77.5507 11.6621 77.8747 12.0281 78.2947 12.3041C78.7147 12.5681 79.2307 12.7001 79.8427 12.7001ZM87.3615 14.5001V4.72606H89.3415V8.92006H89.1615C89.1615 7.92406 89.2935 7.09606 89.5575 6.43606C89.8215 5.76406 90.2115 5.26006 90.7275 4.92406C91.2555 4.58806 91.9095 4.42006 92.6895 4.42006H92.7975C93.9615 4.42006 94.8435 4.79806 95.4435 5.55406C96.0435 6.29806 96.3435 7.41406 96.3435 8.90206V14.5001H93.8415V8.68606C93.8415 8.08606 93.6675 7.60006 93.3195 7.22806C92.9835 6.85606 92.5155 6.67006 91.9155 6.67006C91.3035 6.67006 90.8055 6.86206 90.4215 7.24606C90.0495 7.61806 89.8635 8.12206 89.8635 8.75806V14.5001H87.3615ZM99.0333 14.5001V4.72606H101.013V8.92006H100.833C100.833 7.92406 100.965 7.09606 101.229 6.43606C101.493 5.76406 101.883 5.26006 102.399 4.92406C102.927 4.58806 103.581 4.42006 104.361 4.42006H104.469C105.633 4.42006 106.515 4.79806 107.115 5.55406C107.715 6.29806 108.015 7.41406 108.015 8.90206V14.5001H105.513V8.68606C105.513 8.08606 105.339 7.60006 104.991 7.22806C104.655 6.85606 104.187 6.67006 103.587 6.67006C102.975 6.67006 102.477 6.86206 102.093 7.24606C101.721 7.61806 101.535 8.12206 101.535 8.75806V14.5001H99.0333ZM115.079 14.8421C114.239 14.8421 113.501 14.6981 112.865 14.4101C112.241 14.1221 111.719 13.7381 111.299 13.2581C110.891 12.7661 110.579 12.2201 110.363 11.6201C110.159 11.0201 110.057 10.4081 110.057 9.78406V9.44206C110.057 8.79406 110.159 8.17006 110.363 7.57006C110.579 6.95806 110.891 6.41806 111.299 5.95006C111.719 5.47006 112.235 5.09206 112.847 4.81606C113.459 4.52806 114.167 4.38406 114.971 4.38406C116.027 4.38406 116.909 4.61806 117.617 5.08606C118.337 5.54206 118.877 6.14806 119.237 6.90406C119.597 7.64806 119.777 8.45206 119.777 9.31606V10.2161H111.119V8.68606H118.211L117.437 9.44206C117.437 8.81806 117.347 8.28406 117.167 7.84006C116.987 7.39606 116.711 7.05406 116.339 6.81406C115.979 6.57406 115.523 6.45406 114.971 6.45406C114.419 6.45406 113.951 6.58006 113.567 6.83206C113.183 7.08406 112.889 7.45006 112.685 7.93006C112.493 8.39806 112.397 8.96206 112.397 9.62206C112.397 10.2341 112.493 10.7801 112.685 11.2601C112.877 11.7281 113.171 12.1001 113.567 12.3761C113.963 12.6401 114.467 12.7721 115.079 12.7721C115.691 12.7721 116.189 12.6521 116.573 12.4121C116.957 12.1601 117.203 11.8541 117.311 11.4941H119.615C119.471 12.1661 119.195 12.7541 118.787 13.2581C118.379 13.7621 117.857 14.1521 117.221 14.4281C116.597 14.7041 115.883 14.8421 115.079 14.8421ZM126.205 14.8421C125.353 14.8421 124.615 14.6981 123.991 14.4101C123.379 14.1221 122.863 13.7381 122.443 13.2581C122.035 12.7781 121.729 12.2381 121.525 11.6381C121.321 11.0381 121.219 10.4261 121.219 9.80206V9.46006C121.219 8.80006 121.321 8.17006 121.525 7.57006C121.741 6.95806 122.059 6.41806 122.479 5.95006C122.899 5.47006 123.415 5.09206 124.027 4.81606C124.651 4.52806 125.371 4.38406 126.187 4.38406C127.039 4.38406 127.801 4.55206 128.473 4.88806C129.145 5.21206 129.679 5.66806 130.075 6.25606C130.483 6.84406 130.711 7.52806 130.759 8.30806H128.329C128.269 7.80406 128.053 7.38406 127.681 7.04806C127.321 6.71206 126.823 6.54406 126.187 6.54406C125.635 6.54406 125.173 6.67606 124.801 6.94006C124.441 7.20406 124.171 7.57006 123.991 8.03806C123.811 8.49406 123.721 9.02206 123.721 9.62206C123.721 10.1981 123.805 10.7201 123.973 11.1881C124.153 11.6561 124.423 12.0221 124.783 12.2861C125.155 12.5501 125.629 12.6821 126.205 12.6821C126.637 12.6821 127.009 12.6041 127.321 12.4481C127.633 12.2921 127.879 12.0761 128.059 11.8001C128.251 11.5241 128.371 11.2121 128.419 10.8641H130.849C130.801 11.6561 130.567 12.3521 130.147 12.9521C129.739 13.5401 129.193 14.0021 128.509 14.3381C127.837 14.6741 127.069 14.8421 126.205 14.8421ZM137.102 14.6261C136.202 14.6261 135.458 14.5121 134.87 14.2841C134.294 14.0441 133.862 13.6481 133.574 13.0961C133.286 12.5321 133.142 11.7761 133.142 10.8281L133.16 1.97206H135.5L135.482 10.9901C135.482 11.4701 135.608 11.8421 135.86 12.1061C136.124 12.3581 136.496 12.4841 136.976 12.4841H138.506V14.6261H137.102ZM131.594 6.56206V4.72606H138.506V6.56206H131.594Z" fill="black"/>
</svg>
